# xmcd
#
# Track frame offsets: 
#        150
#        16548
#        33921
#        52419
#        66342
#        82215
#        107538
#        117561
#        129684
#
# Disc length: 2105 seconds
#
# Revision: 0
# Processed by: cddbd v1.5.2PL0 Copyright (c) Steve Scherf et al.
# Submitted via: ExactAudioCopy v1.0b3
#
DISCID=7d083709
DTITLE=Adam Kulisz - Bluesletter
DYEAR=2008
DGENRE=Blues
TTITLE0=Jestem szalony
TTITLE1=Kulisz, tak sie nazywam
TTITLE2=Cieplo z Toba
TTITLE3=Jaromkowy Blues
TTITLE4=Wilczy zew
TTITLE5=Stary dobry blues
TTITLE6=Gorzki smak
TTITLE7=Jimi, Jimi
TTITLE8=Zwykle dni
EXTD=
EXTT0=
EXTT1=
EXTT2=
EXTT3=
EXTT4=
EXTT5=
EXTT6=
EXTT7=
EXTT8=
PLAYORDER=
